<svg xmlns="http://www.w3.org/2000/svg" viewBox="0 0 512 512">
  <defs>
    <linearGradient id="grad1" x1="0%" y1="0%" x2="100%" y2="100%">
      <stop offset="0%" style="stop-color:#3b82f6;stop-opacity:1" />
      <stop offset="100%" style="stop-color:#8b5cf6;stop-opacity:1" />
    </linearGradient>
    <filter id="glow" x="-20%" y="-20%" width="140%" height="140%">
      <feGaussianBlur stdDeviation="15" result="blur" />
      <feComposite in="SourceGraphic" in2="blur" operator="over" />
    </filter>
  </defs>
  
  <!-- Background Squircle -->
  <rect x="32" y="32" width="448" height="448" rx="128" fill="#161616" stroke="#333" stroke-width="8" />
  
  <!-- Glow Effect -->
  <circle cx="256" cy="256" r="180" fill="url(#grad1)" opacity="0.15" filter="url(#glow)" />

  <!-- Pin Shape -->
  <path d="M256 128c-53 0-96 43-96 96 0 42 26 78 64 90v102c0 8.8 7.2 16 16 16s16-7.2 16-16V314c38-12 64-48 64-90 0-53-43-96-96-96zm0 144c-26.5 0-48-21.5-48-48s21.5-48 48-48 48 21.5 48 48-21.5 48-48 48z" fill="url(#grad1)" />
  
  <!-- Spark/Brain Chip Accent -->
  <path d="M256 165l-10 30h-30l22 18-9 28 27-18 27 18-9-28 22-18h-30z" fill="#fff" opacity="0.9" />
</svg>
